<svg width="47" height="43" viewBox="0 0 47 43" fill="none" xmlns="http://www.w3.org/2000/svg">
<path d="M19.3662 12.4218C19.5071 12.3693 19.6585 12.3421 19.8116 12.3416C19.9647 12.3411 20.1164 12.3674 20.2577 12.419C20.3989 12.4706 20.5269 12.5463 20.634 12.6418C20.7412 12.7373 20.8253 12.8506 20.8814 12.9749C20.9376 13.0993 20.9646 13.2322 20.9609 13.3659C20.9572 13.4995 20.9228 13.6311 20.8598 13.7529C20.7968 13.8748 20.7065 13.9844 20.5942 14.0752C20.4819 14.166 20.3498 14.2363 20.2059 14.2818C19.4402 14.5452 18.783 15.0037 18.3199 15.5976C17.8568 16.1915 17.6091 16.8933 17.6091 17.6118V19.3518C17.6091 19.617 17.7298 19.8714 17.9446 20.0589C18.1594 20.2465 18.4508 20.3518 18.7546 20.3518H27.9181C28.2219 20.3518 28.5133 20.2465 28.7281 20.0589C28.9429 19.8714 29.0636 19.617 29.0636 19.3518V17.7048C29.0637 16.9633 28.8057 16.2392 28.3237 15.6286C27.8418 15.018 27.1587 14.5497 26.3649 14.2858C26.2201 14.2419 26.0868 14.1731 25.973 14.0834C25.8591 13.9937 25.7671 13.885 25.7023 13.7637C25.6375 13.6424 25.6013 13.5109 25.5957 13.3771C25.5902 13.2434 25.6155 13.11 25.6701 12.9849C25.7247 12.8598 25.8075 12.7456 25.9137 12.649C26.0198 12.5524 26.147 12.4753 26.2879 12.4224C26.4287 12.3695 26.5803 12.3419 26.7336 12.3411C26.887 12.3403 27.0389 12.3664 27.1805 12.4178C28.4079 12.826 29.4644 13.5501 30.2098 14.4943C30.9552 15.4385 31.3544 16.5581 31.3545 17.7048V19.3518C31.3545 20.1475 30.9924 20.9105 30.348 21.4731C29.7036 22.0357 28.8295 22.3518 27.9181 22.3518H18.7546C17.8432 22.3518 16.9692 22.0357 16.3247 21.4731C15.6803 20.9105 15.3182 20.1475 15.3182 19.3518V17.6118C15.3184 16.492 15.7046 15.3981 16.4265 14.4724C17.1485 13.5468 18.1728 12.8323 19.3662 12.4218ZM23.3364 2.35181C24.5515 2.35181 25.7169 2.77323 26.5762 3.52338C27.4354 4.27352 27.9181 5.29094 27.9181 6.35181V8.35181C27.9181 9.41267 27.4354 10.4301 26.5762 11.1802C25.7169 11.9304 24.5515 12.3518 23.3364 12.3518C22.1212 12.3518 20.9558 11.9304 20.0965 11.1802C19.2373 10.4301 18.7546 9.41267 18.7546 8.35181V6.35181C18.7546 5.29094 19.2373 4.27352 20.0965 3.52338C20.9558 2.77323 22.1212 2.35181 23.3364 2.35181ZM23.3364 4.35181C22.7288 4.35181 22.1461 4.56252 21.7165 4.93759C21.2868 5.31267 21.0455 5.82137 21.0455 6.35181V8.35181C21.0455 8.88224 21.2868 9.39095 21.7165 9.76602C22.1461 10.1411 22.7288 10.3518 23.3364 10.3518C23.9439 10.3518 24.5266 10.1411 24.9563 9.76602C25.3859 9.39095 25.6272 8.88224 25.6272 8.35181V6.35181C25.6272 5.82137 25.3859 5.31267 24.9563 4.93759C24.5266 4.56252 23.9439 4.35181 23.3364 4.35181Z" fill="#181725"/>
<path d="M8.17354 38.5202H6.68554L6.09754 36.8282H2.52154L1.93354 38.5202H0.433535L3.48154 30.1202H5.13754L8.17354 38.5202ZM4.30954 31.7402L2.97754 35.5322H5.64154L4.30954 31.7402ZM11.6725 38.6762C10.7685 38.6762 10.0125 38.3722 9.40447 37.7642C8.80447 37.1482 8.50447 36.4002 8.50447 35.5202C8.50447 34.6242 8.80447 33.8762 9.40447 33.2762C10.0125 32.6682 10.7685 32.3642 11.6725 32.3642C12.2565 32.3642 12.7885 32.5042 13.2685 32.7842C13.7485 33.0642 14.1085 33.4402 14.3485 33.9122L13.2325 34.5602C13.0965 34.2722 12.8885 34.0482 12.6085 33.8882C12.3365 33.7202 12.0205 33.6362 11.6605 33.6362C11.1325 33.6362 10.6885 33.8162 10.3285 34.1762C9.97647 34.5442 9.80047 34.9922 9.80047 35.5202C9.80047 36.0482 9.97647 36.4962 10.3285 36.8642C10.6885 37.2242 11.1325 37.4042 11.6605 37.4042C12.0125 37.4042 12.3285 37.3242 12.6085 37.1642C12.8965 36.9962 13.1125 36.7682 13.2565 36.4802L14.3725 37.1162C14.1165 37.5962 13.7445 37.9762 13.2565 38.2562C12.7765 38.5362 12.2485 38.6762 11.6725 38.6762ZM18.0475 38.6762C17.1435 38.6762 16.3875 38.3722 15.7795 37.7642C15.1795 37.1482 14.8795 36.4002 14.8795 35.5202C14.8795 34.6242 15.1795 33.8762 15.7795 33.2762C16.3875 32.6682 17.1435 32.3642 18.0475 32.3642C18.6315 32.3642 19.1635 32.5042 19.6435 32.7842C20.1235 33.0642 20.4835 33.4402 20.7235 33.9122L19.6075 34.5602C19.4715 34.2722 19.2635 34.0482 18.9835 33.8882C18.7115 33.7202 18.3955 33.6362 18.0355 33.6362C17.5075 33.6362 17.0635 33.8162 16.7035 34.1762C16.3515 34.5442 16.1755 34.9922 16.1755 35.5202C16.1755 36.0482 16.3515 36.4962 16.7035 36.8642C17.0635 37.2242 17.5075 37.4042 18.0355 37.4042C18.3875 37.4042 18.7035 37.3242 18.9835 37.1642C19.2715 36.9962 19.4875 36.7682 19.6315 36.4802L20.7475 37.1162C20.4915 37.5962 20.1195 37.9762 19.6315 38.2562C19.1515 38.5362 18.6235 38.6762 18.0475 38.6762ZM26.6665 37.7642C26.0585 38.3722 25.3105 38.6762 24.4225 38.6762C23.5345 38.6762 22.7865 38.3722 22.1785 37.7642C21.5625 37.1482 21.2545 36.4002 21.2545 35.5202C21.2545 34.6402 21.5625 33.8922 22.1785 33.2762C22.7865 32.6682 23.5345 32.3642 24.4225 32.3642C25.3105 32.3642 26.0585 32.6682 26.6665 33.2762C27.2825 33.8922 27.5905 34.6402 27.5905 35.5202C27.5905 36.4002 27.2825 37.1482 26.6665 37.7642ZM22.5505 35.5202C22.5505 36.0642 22.7305 36.5162 23.0905 36.8762C23.4505 37.2362 23.8945 37.4162 24.4225 37.4162C24.9505 37.4162 25.3945 37.2362 25.7545 36.8762C26.1145 36.5162 26.2945 36.0642 26.2945 35.5202C26.2945 34.9762 26.1145 34.5242 25.7545 34.1642C25.3945 33.8042 24.9505 33.6242 24.4225 33.6242C23.8945 33.6242 23.4505 33.8042 23.0905 34.1642C22.7305 34.5242 22.5505 34.9762 22.5505 35.5202ZM32.8063 35.7362V32.5202H34.1023V38.5202H32.8063V37.7522C32.4063 38.3682 31.7863 38.6762 30.9463 38.6762C30.2503 38.6762 29.6903 38.4562 29.2663 38.0162C28.8503 37.5682 28.6423 36.9642 28.6423 36.2042V32.5202H29.9383V36.0722C29.9383 36.5202 30.0583 36.8642 30.2983 37.1042C30.5383 37.3442 30.8663 37.4642 31.2823 37.4642C31.7543 37.4642 32.1263 37.3202 32.3983 37.0322C32.6703 36.7362 32.8063 36.3042 32.8063 35.7362ZM38.7738 32.3642C39.4698 32.3642 40.0258 32.5882 40.4418 33.0362C40.8658 33.4762 41.0778 34.0762 41.0778 34.8362V38.5202H39.7818V34.9682C39.7818 34.5202 39.6618 34.1762 39.4218 33.9362C39.1818 33.6962 38.8538 33.5762 38.4378 33.5762C37.9658 33.5762 37.5938 33.7242 37.3218 34.0202C37.0498 34.3082 36.9138 34.7362 36.9138 35.3042V38.5202H35.6178V32.5202H36.9138V33.2882C37.3138 32.6722 37.9338 32.3642 38.7738 32.3642ZM45.8213 32.5202V33.7682H44.3333V36.6482C44.3333 36.8962 44.3893 37.0762 44.5013 37.1882C44.6133 37.2922 44.7773 37.3522 44.9933 37.3682C45.2173 37.3762 45.4933 37.3722 45.8213 37.3562V38.5202C44.8293 38.6402 44.1173 38.5562 43.6853 38.2682C43.2533 37.9722 43.0373 37.4322 43.0373 36.6482V33.7682H41.9333V32.5202H43.0373V31.2242L44.3333 30.8402V32.5202H45.8213Z" fill="#181725"/>
</svg>
