<svg width="27" height="41" viewBox="0 0 27 41" fill="none" xmlns="http://www.w3.org/2000/svg">
<path d="M5.40184 36.6762C4.13784 36.6762 3.08984 36.2602 2.25784 35.4282C1.42584 34.5802 1.00984 33.5442 1.00984 32.3202C1.00984 31.0882 1.42584 30.0562 2.25784 29.2242C3.08184 28.3842 4.12984 27.9642 5.40184 27.9642C6.16184 27.9642 6.86184 28.1442 7.50184 28.5042C8.14984 28.8642 8.65384 29.3522 9.01384 29.9682L7.81384 30.6642C7.58984 30.2482 7.26184 29.9202 6.82984 29.6802C6.40584 29.4322 5.92984 29.3082 5.40184 29.3082C4.51384 29.3082 3.78584 29.5922 3.21784 30.1602C2.66584 30.7202 2.38984 31.4402 2.38984 32.3202C2.38984 33.2002 2.66584 33.9202 3.21784 34.4802C3.78584 35.0482 4.51384 35.3322 5.40184 35.3322C5.92984 35.3322 6.40984 35.2122 6.84184 34.9722C7.27384 34.7242 7.59784 34.3922 7.81384 33.9762L9.01384 34.6602C8.66984 35.2682 8.16984 35.7602 7.51384 36.1362C6.88184 36.4962 6.17784 36.6762 5.40184 36.6762ZM14.8166 31.3722V30.5202H16.1126V36.5202H14.8166V35.6562C14.3286 36.3362 13.6286 36.6762 12.7166 36.6762C11.8926 36.6762 11.1886 36.3722 10.6046 35.7642C10.0206 35.1562 9.72859 34.4082 9.72859 33.5202C9.72859 32.6322 10.0206 31.8842 10.6046 31.2762C11.1886 30.6682 11.8926 30.3642 12.7166 30.3642C13.6286 30.3642 14.3286 30.7002 14.8166 31.3722ZM11.5646 34.9002C11.9246 35.2602 12.3766 35.4402 12.9206 35.4402C13.4646 35.4402 13.9166 35.2602 14.2766 34.9002C14.6366 34.5322 14.8166 34.0722 14.8166 33.5202C14.8166 32.9682 14.6366 32.5122 14.2766 32.1522C13.9166 31.7842 13.4646 31.6002 12.9206 31.6002C12.3766 31.6002 11.9246 31.7842 11.5646 32.1522C11.2046 32.5122 11.0246 32.9682 11.0246 33.5202C11.0246 34.0642 11.2046 34.5242 11.5646 34.9002ZM18.9192 30.5202V31.5282C19.2472 30.7842 19.8632 30.4122 20.7672 30.4122V31.8162C20.2792 31.7842 19.8472 31.9042 19.4712 32.1762C19.1032 32.4402 18.9192 32.8802 18.9192 33.4962V36.5202H17.6232V30.5202H18.9192ZM25.2251 30.5202V31.7682H23.7371V34.6482C23.7371 34.8962 23.7931 35.0762 23.9051 35.1882C24.0171 35.2922 24.1811 35.3522 24.3971 35.3682C24.6211 35.3762 24.8971 35.3722 25.2251 35.3562V36.5202C24.2331 36.6402 23.5211 36.5562 23.0891 36.2682C22.6571 35.9722 22.4411 35.4322 22.4411 34.6482V31.7682H21.3371V30.5202H22.4411V29.2242L23.7371 28.8402V30.5202H25.2251Z" fill="#181725"/>
<path d="M10.6825 20.3518C10.0339 20.3518 9.41194 20.0942 8.95334 19.6356C8.49475 19.177 8.23711 18.555 8.23711 17.9064C8.23711 17.2579 8.49475 16.6359 8.95334 16.1773C9.41194 15.7187 10.0339 15.4611 10.6825 15.4611C11.331 15.4611 11.953 15.7187 12.4116 16.1773C12.8702 16.6359 13.1278 17.2579 13.1278 17.9064C13.1278 18.555 12.8702 19.177 12.4116 19.6356C11.953 20.0942 11.331 20.3518 10.6825 20.3518ZM19.2412 20.3518C18.5927 20.3518 17.9707 20.0942 17.5121 19.6356C17.0535 19.177 16.7959 18.555 16.7959 17.9064C16.7959 17.2579 17.0535 16.6359 17.5121 16.1773C17.9707 15.7187 18.5927 15.4611 19.2412 15.4611C19.8898 15.4611 20.5118 15.7187 20.9704 16.1773C21.429 16.6359 21.6866 17.2579 21.6866 17.9064C21.6866 18.555 21.429 19.177 20.9704 19.6356C20.5118 20.0942 19.8898 20.3518 19.2412 20.3518ZM3.29992 3.1401C2.99469 3.13025 2.70526 3.00208 2.49283 2.78269C2.2804 2.56329 2.16162 2.26988 2.16162 1.96449C2.16162 1.6591 2.2804 1.36569 2.49283 1.14629C2.70526 0.926896 2.99469 0.798724 3.29992 0.788879L4.70723 0.788879C5.81009 0.788879 6.76378 1.55428 7.00343 2.63024L8.53545 9.52861C8.77509 10.6046 9.72878 11.37 10.8316 11.37H20.0164L21.7795 4.31509H10.3536C10.0512 4.3013 9.76582 4.17148 9.55673 3.95263C9.34765 3.73379 9.23097 3.44277 9.23097 3.1401C9.23097 2.83743 9.34765 2.54641 9.55673 2.32756C9.76582 2.10872 10.0512 1.9789 10.3536 1.9651H21.7795C22.137 1.96499 22.4897 2.04638 22.811 2.20308C23.1322 2.35977 23.4135 2.58764 23.6335 2.86938C23.8535 3.15111 24.0063 3.47928 24.0804 3.82895C24.1545 4.17862 24.1479 4.54058 24.0611 4.88731L22.298 11.9397C22.1709 12.4486 21.8772 12.9004 21.4638 13.2232C21.0504 13.546 20.5409 13.7213 20.0164 13.7212H10.8316C9.76155 13.7213 8.7234 13.3565 7.88866 12.6869C7.05393 12.0174 6.47252 11.0831 6.24047 10.0385L4.70723 3.1401H3.29992Z" fill="#181725"/>
</svg>
