<svg width="42" height="39" viewBox="0 0 42 39" fill="none" xmlns="http://www.w3.org/2000/svg">
<path d="M25.0214 14.0713C25.8093 14.0713 26.5895 13.9161 27.3175 13.6146C28.0454 13.313 28.7069 12.8711 29.264 12.3139C29.8212 11.7568 30.2631 11.0953 30.5647 10.3674C30.8662 9.63943 31.0214 8.85921 31.0214 8.07128C31.0214 7.28335 30.8662 6.50314 30.5647 5.77518C30.2631 5.04723 29.8212 4.38579 29.264 3.82864C28.7069 3.27149 28.0454 2.82953 27.3175 2.52801C26.5895 2.22648 25.8093 2.07128 25.0214 2.07128C23.4301 2.07128 21.904 2.70342 20.7787 3.82864C19.6535 4.95386 19.0214 6.47998 19.0214 8.07128C19.0214 9.66258 19.6535 11.1887 20.7787 12.3139C21.904 13.4391 23.4301 14.0713 25.0214 14.0713ZM31.3414 12.9773L34.9214 16.5573C35.0168 16.6496 35.0929 16.76 35.1452 16.882C35.1976 17.0041 35.2251 17.1353 35.2261 17.2681C35.2272 17.4009 35.2018 17.5325 35.1514 17.6554C35.101 17.7783 35.0267 17.8899 34.9328 17.9837C34.8388 18.0775 34.7271 18.1517 34.6042 18.2019C34.4812 18.2521 34.3495 18.2773 34.2168 18.276C34.084 18.2748 33.9528 18.2471 33.8308 18.1946C33.7088 18.1421 33.5986 18.0659 33.5064 17.9703L29.9264 14.3903C28.3188 15.6381 26.2962 16.2265 24.2701 16.0355C22.2441 15.8445 20.367 14.8886 19.0209 13.3623C17.6749 11.8361 16.9611 9.85423 17.0248 7.82021C17.0885 5.78618 17.925 3.85291 19.364 2.41393C20.803 0.974952 22.7363 0.13845 24.7703 0.0747088C26.8043 0.0109677 28.7862 0.72478 30.3124 2.07083C31.8387 3.41689 32.7946 5.294 32.9856 7.32004C33.1765 9.34608 32.5882 11.3687 31.3404 12.9763L31.3414 12.9773Z" fill="#181725"/>
<rect x="6.87683" y="0.0707798" width="8.85499" height="2.39923" rx="1.19961" fill="#181725"/>
<rect x="6.87683" y="7.50897" width="6.46414" height="2.39923" rx="1.19961" fill="#181725"/>
<rect x="6.87683" y="14.9476" width="8.85499" height="2.39923" rx="1.19961" fill="#181725"/>
<path d="M2.80472 30.9322V33.2002H6.52472V34.5202H1.42472V26.1202H6.46472V27.4402H2.80472V29.6242H6.16472V30.9322H2.80472ZM10.824 31.4482L13.068 34.5202H11.568L10.08 32.4682L8.58 34.5202H7.068L9.324 31.4362L7.188 28.5202H8.688L10.068 30.4162L11.448 28.5202H12.96L10.824 31.4482ZM17.3344 28.3642C18.1504 28.3642 18.8544 28.6722 19.4464 29.2882C20.0304 29.8962 20.3224 30.6402 20.3224 31.5202C20.3224 32.4082 20.0304 33.1562 19.4464 33.7642C18.8624 34.3722 18.1584 34.6762 17.3344 34.6762C16.4304 34.6762 15.7304 34.3402 15.2344 33.6682V36.9202H13.9384V28.5202H15.2344V29.3842C15.7224 28.7042 16.4224 28.3642 17.3344 28.3642ZM15.7744 32.9002C16.1344 33.2602 16.5864 33.4402 17.1304 33.4402C17.6744 33.4402 18.1264 33.2602 18.4864 32.9002C18.8464 32.5322 19.0264 32.0722 19.0264 31.5202C19.0264 30.9682 18.8464 30.5122 18.4864 30.1522C18.1264 29.7842 17.6744 29.6002 17.1304 29.6002C16.5864 29.6002 16.1344 29.7842 15.7744 30.1522C15.4144 30.5122 15.2344 30.9682 15.2344 31.5202C15.2344 32.0642 15.4144 32.5242 15.7744 32.9002ZM22.793 34.5202H21.497V25.7602H22.793V34.5202ZM29.3737 33.7642C28.7657 34.3722 28.0177 34.6762 27.1297 34.6762C26.2417 34.6762 25.4937 34.3722 24.8857 33.7642C24.2697 33.1482 23.9617 32.4002 23.9617 31.5202C23.9617 30.6402 24.2697 29.8922 24.8857 29.2762C25.4937 28.6682 26.2417 28.3642 27.1297 28.3642C28.0177 28.3642 28.7657 28.6682 29.3737 29.2762C29.9897 29.8922 30.2977 30.6402 30.2977 31.5202C30.2977 32.4002 29.9897 33.1482 29.3737 33.7642ZM25.2577 31.5202C25.2577 32.0642 25.4377 32.5162 25.7977 32.8762C26.1577 33.2362 26.6017 33.4162 27.1297 33.4162C27.6577 33.4162 28.1017 33.2362 28.4617 32.8762C28.8217 32.5162 29.0017 32.0642 29.0017 31.5202C29.0017 30.9762 28.8217 30.5242 28.4617 30.1642C28.1017 29.8042 27.6577 29.6242 27.1297 29.6242C26.6017 29.6242 26.1577 29.8042 25.7977 30.1642C25.4377 30.5242 25.2577 30.9762 25.2577 31.5202ZM32.7656 28.5202V29.5282C33.0936 28.7842 33.7096 28.4122 34.6136 28.4122V29.8162C34.1256 29.7842 33.6936 29.9042 33.3176 30.1762C32.9496 30.4402 32.7656 30.8802 32.7656 31.4962V34.5202H31.4696V28.5202H32.7656ZM41.0859 32.0722H36.3099C36.4059 32.5202 36.6219 32.8682 36.9579 33.1162C37.3019 33.3642 37.7259 33.4882 38.2299 33.4882C38.9099 33.4882 39.4259 33.2402 39.7779 32.7442L40.8459 33.3682C40.2619 34.2402 39.3859 34.6762 38.2179 34.6762C37.2499 34.6762 36.4619 34.3802 35.8539 33.7882C35.2539 33.1882 34.9539 32.4322 34.9539 31.5202C34.9539 30.6322 35.2499 29.8842 35.8419 29.2762C36.4259 28.6682 37.1859 28.3642 38.1219 28.3642C38.9939 28.3642 39.7139 28.6722 40.2819 29.2882C40.8499 29.9042 41.1339 30.6522 41.1339 31.5322C41.1339 31.6922 41.1179 31.8722 41.0859 32.0722ZM36.2979 31.0162H39.8259C39.7379 30.5442 39.5379 30.1802 39.2259 29.9242C38.9219 29.6682 38.5499 29.5402 38.1099 29.5402C37.6299 29.5402 37.2299 29.6722 36.9099 29.9362C36.5899 30.2002 36.3859 30.5602 36.2979 31.0162Z" fill="#181725"/>
</svg>
