<svg width="54" height="43" viewBox="0 0 54 43" fill="none" xmlns="http://www.w3.org/2000/svg">
<g clip-path="url(#clip0_1_1248)">
<path d="M19.4357 11.8434L27.2598 19.6675L35.0839 11.8434C35.7756 11.1517 36.1643 10.2135 36.1643 9.2352C36.1643 8.25693 35.7756 7.31871 35.0839 6.62697C34.7414 6.28445 34.3347 6.01275 33.8872 5.82738C33.4397 5.64201 32.96 5.5466 32.4756 5.5466C31.4974 5.5466 30.5592 5.93522 29.8674 6.62697L27.2598 9.23459L24.6522 6.6282C23.9587 5.94573 23.0236 5.56495 22.0506 5.56879C21.0776 5.57264 20.1455 5.9608 19.4574 6.64873C18.7694 7.33666 18.381 8.26862 18.3769 9.24161C18.3728 10.2146 18.7534 11.1498 19.4357 11.8434ZM26.3906 4.88732L27.2598 5.75653L28.129 4.88732C28.6989 4.3124 29.3767 3.85571 30.1236 3.54347C30.8705 3.23122 31.6717 3.06957 32.4812 3.0678C33.2907 3.06603 34.0926 3.22416 34.8409 3.53314C35.5891 3.84211 36.269 4.29583 36.8414 4.86824C37.4138 5.44066 37.8675 6.12051 38.1765 6.86874C38.4855 7.61698 38.6436 8.41888 38.6418 9.2284C38.6401 10.0379 38.4784 10.8391 38.1662 11.586C37.8539 12.3329 37.3972 13.0107 36.8223 13.5806L28.1302 22.2739C28.016 22.3882 27.8804 22.4789 27.7312 22.5408C27.5819 22.6027 27.422 22.6345 27.2604 22.6345C27.0988 22.6345 26.9388 22.6027 26.7896 22.5408C26.6403 22.4789 26.5048 22.3882 26.3906 22.2739L17.6973 13.5819C17.1145 13.0138 16.6504 12.3357 16.3318 11.5868C16.0132 10.838 15.8464 10.0333 15.8412 9.21951C15.836 8.40572 15.9924 7.59899 16.3014 6.84612C16.6104 6.09325 17.0658 5.40923 17.6412 4.83374C18.2166 4.25825 18.9006 3.80274 19.6534 3.49364C20.4062 3.18453 21.2129 3.02799 22.0267 3.03309C22.8405 3.03819 23.6452 3.20483 24.3941 3.52334C25.143 3.84185 25.8212 4.30589 26.3893 4.88855L26.3906 4.88732Z" fill="#53B175"/>
</g>
<path d="M6.98583 30.1202V31.4402H3.44583V33.7922H6.86583V35.1122H3.44583V38.5202H2.06583V30.1202H6.98583ZM12.9448 33.3722V32.5202H14.2408V38.5202H12.9448V37.6562C12.4568 38.3362 11.7568 38.6762 10.8448 38.6762C10.0208 38.6762 9.31677 38.3722 8.73277 37.7642C8.14877 37.1562 7.85677 36.4082 7.85677 35.5202C7.85677 34.6322 8.14877 33.8842 8.73277 33.2762C9.31677 32.6682 10.0208 32.3642 10.8448 32.3642C11.7568 32.3642 12.4568 32.7002 12.9448 33.3722ZM9.69277 36.9002C10.0528 37.2602 10.5048 37.4402 11.0488 37.4402C11.5928 37.4402 12.0448 37.2602 12.4048 36.9002C12.7648 36.5322 12.9448 36.0722 12.9448 35.5202C12.9448 34.9682 12.7648 34.5122 12.4048 34.1522C12.0448 33.7842 11.5928 33.6002 11.0488 33.6002C10.5048 33.6002 10.0528 33.7842 9.69277 34.1522C9.33277 34.5122 9.15277 34.9682 9.15277 35.5202C9.15277 36.0642 9.33277 36.5242 9.69277 36.9002ZM18.1514 37.0802L19.8194 32.5202H21.2354L18.8954 38.5202H17.3954L15.0554 32.5202H16.4714L18.1514 37.0802ZM26.8977 37.7642C26.2897 38.3722 25.5417 38.6762 24.6537 38.6762C23.7657 38.6762 23.0177 38.3722 22.4097 37.7642C21.7937 37.1482 21.4857 36.4002 21.4857 35.5202C21.4857 34.6402 21.7937 33.8922 22.4097 33.2762C23.0177 32.6682 23.7657 32.3642 24.6537 32.3642C25.5417 32.3642 26.2897 32.6682 26.8977 33.2762C27.5137 33.8922 27.8217 34.6402 27.8217 35.5202C27.8217 36.4002 27.5137 37.1482 26.8977 37.7642ZM22.7817 35.5202C22.7817 36.0642 22.9617 36.5162 23.3217 36.8762C23.6817 37.2362 24.1257 37.4162 24.6537 37.4162C25.1817 37.4162 25.6257 37.2362 25.9857 36.8762C26.3457 36.5162 26.5257 36.0642 26.5257 35.5202C26.5257 34.9762 26.3457 34.5242 25.9857 34.1642C25.6257 33.8042 25.1817 33.6242 24.6537 33.6242C24.1257 33.6242 23.6817 33.8042 23.3217 34.1642C22.9617 34.5242 22.7817 34.9762 22.7817 35.5202ZM33.0375 35.7362V32.5202H34.3335V38.5202H33.0375V37.7522C32.6375 38.3682 32.0175 38.6762 31.1775 38.6762C30.4815 38.6762 29.9215 38.4562 29.4975 38.0162C29.0815 37.5682 28.8735 36.9642 28.8735 36.2042V32.5202H30.1695V36.0722C30.1695 36.5202 30.2895 36.8642 30.5295 37.1042C30.7695 37.3442 31.0975 37.4642 31.5135 37.4642C31.9855 37.4642 32.3575 37.3202 32.6295 37.0322C32.9015 36.7362 33.0375 36.3042 33.0375 35.7362ZM37.145 32.5202V33.5282C37.473 32.7842 38.089 32.4122 38.993 32.4122V33.8162C38.505 33.7842 38.073 33.9042 37.697 34.1762C37.329 34.4402 37.145 34.8802 37.145 35.4962V38.5202H35.849V32.5202H37.145ZM41.1746 31.3802C41.0146 31.5402 40.8226 31.6202 40.5986 31.6202C40.3746 31.6202 40.1786 31.5402 40.0106 31.3802C39.8506 31.2122 39.7706 31.0162 39.7706 30.7922C39.7706 30.5682 39.8506 30.3762 40.0106 30.2162C40.1706 30.0482 40.3666 29.9642 40.5986 29.9642C40.8306 29.9642 41.0266 30.0482 41.1866 30.2162C41.3466 30.3762 41.4266 30.5682 41.4266 30.7922C41.4266 31.0162 41.3426 31.2122 41.1746 31.3802ZM41.2466 38.5202H39.9506V32.5202H41.2466V38.5202ZM46.0994 32.5202V33.7682H44.6114V36.6482C44.6114 36.8962 44.6674 37.0762 44.7794 37.1882C44.8914 37.2922 45.0554 37.3522 45.2714 37.3682C45.4954 37.3762 45.7714 37.3722 46.0994 37.3562V38.5202C45.1074 38.6402 44.3954 38.5562 43.9634 38.2682C43.5314 37.9722 43.3154 37.4322 43.3154 36.6482V33.7682H42.2114V32.5202H43.3154V31.2242L44.6114 30.8402V32.5202H46.0994ZM52.8247 36.0722H48.0487C48.1447 36.5202 48.3607 36.8682 48.6967 37.1162C49.0407 37.3642 49.4647 37.4882 49.9687 37.4882C50.6487 37.4882 51.1647 37.2402 51.5167 36.7442L52.5847 37.3682C52.0007 38.2402 51.1247 38.6762 49.9567 38.6762C48.9887 38.6762 48.2007 38.3802 47.5927 37.7882C46.9927 37.1882 46.6927 36.4322 46.6927 35.5202C46.6927 34.6322 46.9887 33.8842 47.5807 33.2762C48.1647 32.6682 48.9247 32.3642 49.8607 32.3642C50.7327 32.3642 51.4527 32.6722 52.0207 33.2882C52.5887 33.9042 52.8727 34.6522 52.8727 35.5322C52.8727 35.6922 52.8567 35.8722 52.8247 36.0722ZM48.0367 35.0162H51.5647C51.4767 34.5442 51.2767 34.1802 50.9647 33.9242C50.6607 33.6682 50.2887 33.5402 49.8487 33.5402C49.3687 33.5402 48.9687 33.6722 48.6487 33.9362C48.3287 34.2002 48.1247 34.5602 48.0367 35.0162Z" fill="#53B175"/>
<defs>
<clipPath id="clip0_1_1248">
<rect width="24" height="24" fill="white" transform="translate(14.7415 0.83374)"/>
</clipPath>
</defs>
</svg>
