<svg width="30" height="43" viewBox="0 0 30 43" fill="none" xmlns="http://www.w3.org/2000/svg">
<path d="M12.4565 9.58781C12.9865 10.0628 13.6885 10.3518 14.4565 10.3518H16.4565C17.1947 10.3528 17.9071 10.0807 18.4565 9.58781H12.4565ZM12.4565 9.58781C11.9071 10.0807 11.1947 10.3528 10.4565 10.3518L12.4565 9.58781ZM11.5065 4.35181V4.30181H11.4565H8.45655C8.17807 4.30181 7.911 4.41243 7.71408 4.60934C7.51717 4.80626 7.40655 5.07333 7.40655 5.35181V7.35181C7.40655 7.63028 7.51717 7.89736 7.71408 8.09427C7.911 8.29118 8.17807 8.40181 8.45655 8.40181H10.4565C10.735 8.40181 11.0021 8.29118 11.199 8.09427C11.3959 7.89736 11.5065 7.63028 11.5065 7.35181V4.35181ZM8.46655 10.3018H8.41655V10.3518V20.3168V20.3668H8.46655H10.4565H10.5065V20.3168V15.3518C10.5065 14.8346 10.712 14.3386 11.0777 13.9729C11.4434 13.6073 11.9394 13.4018 12.4565 13.4018H14.4565C14.9737 13.4018 15.4697 13.6073 15.8354 13.9729C16.2011 14.3386 16.4065 14.8346 16.4065 15.3518V20.3168V20.3668H16.4565H22.4695H22.5195V20.3168V10.3518V10.3018H22.4695H20.4565C19.7013 10.3018 19.0111 10.0177 18.4899 9.55057L18.4565 9.52065L18.4232 9.55059C17.8829 10.0352 17.1824 10.3028 16.4566 10.3018H16.4565H14.4565C13.7013 10.3018 13.0111 10.0177 12.4899 9.55057L12.4565 9.52065L12.4232 9.55059C11.8829 10.0352 11.1824 10.3028 10.4566 10.3018H10.4565H8.46655ZM6.46471 9.52893C6.16827 9.25816 5.93024 8.92947 5.76545 8.56299C5.59422 8.18222 5.50596 7.76938 5.50655 7.35188V7.35181V5.35181C5.50655 4.56942 5.81735 3.81907 6.37058 3.26584C6.92381 2.71261 7.67416 2.40181 8.45655 2.40181H22.4565C23.2389 2.40181 23.9893 2.71261 24.5425 3.26584C25.0957 3.81907 25.4065 4.56942 25.4065 5.35181V7.35181C25.4065 8.21914 25.0329 8.99984 24.436 9.53972L24.4195 9.55461V9.57681V20.3168C24.4195 20.834 24.2141 21.33 23.8484 21.6957C23.4827 22.0614 22.9867 22.2668 22.4695 22.2668H14.8295V22.2659L14.8203 22.2677C14.7003 22.2904 14.5786 22.3018 14.4565 22.3018H12.4565C12.3345 22.3018 12.2127 22.2904 12.0928 22.2677L12.093 22.2668H12.0835H8.46755C7.95037 22.2668 7.45438 22.0614 7.08869 21.6957C6.72299 21.33 6.51755 20.834 6.51755 20.3168V9.59681V9.47611L6.46471 9.52893ZM14.5065 15.3518V15.3018H14.4565H12.4565H12.4065V15.3518V20.3168V20.3668H12.4565H14.4565V20.3178H14.5065V20.3168V20.2668V15.3518ZM17.5065 4.35181V4.30181H17.4565H13.4565H13.4065V4.35181V7.35181C13.4065 7.63028 13.5172 7.89736 13.7141 8.09427C13.911 8.29118 14.1781 8.40181 14.4565 8.40181H16.4565C16.735 8.40181 17.0021 8.29118 17.199 8.09427C17.3959 7.89736 17.5065 7.63028 17.5065 7.35181V4.35181ZM19.4565 4.30181H19.4065V4.35181V7.35181C19.4065 7.63028 19.5172 7.89736 19.7141 8.09427C19.911 8.29118 20.1781 8.40181 20.4565 8.40181H22.4565C22.735 8.40181 23.0021 8.29118 23.199 8.09427C23.3959 7.89736 23.5065 7.63028 23.5065 7.35181V5.35181C23.5065 5.07333 23.3959 4.80626 23.199 4.60934C23.0021 4.41243 22.735 4.30181 22.4565 4.30181H19.4565ZM19.4565 13.4018H20.4565C20.7085 13.4018 20.9501 13.5019 21.1283 13.6801C21.3065 13.8582 21.4065 14.0999 21.4065 14.3518V17.3518C21.4065 17.6038 21.3065 17.8454 21.1283 18.0236C20.9501 18.2017 20.7085 18.3018 20.4565 18.3018H19.4565C19.2046 18.3018 18.963 18.2017 18.7848 18.0236C18.6066 17.8454 18.5065 17.6038 18.5065 17.3518V14.3518C18.5065 14.0999 18.6066 13.8582 18.7848 13.6801C18.963 13.5019 19.2046 13.4018 19.4565 13.4018Z" fill="#181725" stroke="white" stroke-width="0.1"/>
<path d="M4.81325 38.6762C4.00525 38.6762 3.31725 38.4962 2.74925 38.1362C2.18925 37.7682 1.79725 37.2602 1.57325 36.6122L2.76125 35.9162C3.09725 36.8602 3.79325 37.3322 4.84925 37.3322C5.36125 37.3322 5.74925 37.2322 6.01325 37.0322C6.27725 36.8322 6.40925 36.5642 6.40925 36.2282C6.40925 35.8922 6.26925 35.6322 5.98925 35.4482C5.70925 35.2642 5.21325 35.0642 4.50125 34.8482C3.77325 34.6322 3.18525 34.3762 2.73725 34.0802C2.19325 33.6962 1.92125 33.1322 1.92125 32.3882C1.92125 31.6442 2.18525 31.0562 2.71325 30.6242C3.23325 30.1842 3.86925 29.9642 4.62125 29.9642C5.28525 29.9642 5.86925 30.1282 6.37325 30.4562C6.88525 30.7762 7.27725 31.2282 7.54925 31.8122L6.38525 32.4842C6.03325 31.7002 5.44525 31.3082 4.62125 31.3082C4.22125 31.3082 3.90125 31.4042 3.66125 31.5962C3.42125 31.7802 3.30125 32.0322 3.30125 32.3522C3.30125 32.6642 3.42125 32.9122 3.66125 33.0962C3.90125 33.2722 4.34525 33.4602 4.99325 33.6602C5.39325 33.7962 5.62525 33.8762 5.68925 33.9002C5.79325 33.9322 6.00125 34.0122 6.31325 34.1402C6.56925 34.2442 6.77325 34.3562 6.92525 34.4762C7.54925 34.9642 7.83725 35.5402 7.78925 36.2042C7.78925 36.9642 7.51325 37.5682 6.96125 38.0162C6.42525 38.4562 5.70925 38.6762 4.81325 38.6762ZM12.0619 32.3642C12.7579 32.3642 13.3139 32.5882 13.7299 33.0362C14.1539 33.4762 14.3659 34.0762 14.3659 34.8362V38.5202H13.0699V34.9682C13.0699 34.5202 12.9499 34.1762 12.7099 33.9362C12.4699 33.6962 12.1419 33.5762 11.7259 33.5762C11.2539 33.5762 10.8819 33.7242 10.6099 34.0202C10.3379 34.3082 10.2019 34.7362 10.2019 35.3042V38.5202H8.9059V30.1202H10.2019V33.2882C10.6019 32.6722 11.2219 32.3642 12.0619 32.3642ZM20.8374 37.7642C20.2294 38.3722 19.4814 38.6762 18.5934 38.6762C17.7054 38.6762 16.9574 38.3722 16.3494 37.7642C15.7334 37.1482 15.4254 36.4002 15.4254 35.5202C15.4254 34.6402 15.7334 33.8922 16.3494 33.2762C16.9574 32.6682 17.7054 32.3642 18.5934 32.3642C19.4814 32.3642 20.2294 32.6682 20.8374 33.2762C21.4534 33.8922 21.7614 34.6402 21.7614 35.5202C21.7614 36.4002 21.4534 37.1482 20.8374 37.7642ZM16.7214 35.5202C16.7214 36.0642 16.9014 36.5162 17.2614 36.8762C17.6214 37.2362 18.0654 37.4162 18.5934 37.4162C19.1214 37.4162 19.5654 37.2362 19.9254 36.8762C20.2854 36.5162 20.4654 36.0642 20.4654 35.5202C20.4654 34.9762 20.2854 34.5242 19.9254 34.1642C19.5654 33.8042 19.1214 33.6242 18.5934 33.6242C18.0654 33.6242 17.6214 33.8042 17.2614 34.1642C16.9014 34.5242 16.7214 34.9762 16.7214 35.5202ZM26.3292 32.3642C27.1452 32.3642 27.8492 32.6722 28.4412 33.2882C29.0252 33.8962 29.3172 34.6402 29.3172 35.5202C29.3172 36.4082 29.0252 37.1562 28.4412 37.7642C27.8572 38.3722 27.1532 38.6762 26.3292 38.6762C25.4252 38.6762 24.7252 38.3402 24.2292 37.6682V40.9202H22.9332V32.5202H24.2292V33.3842C24.7172 32.7042 25.4172 32.3642 26.3292 32.3642ZM24.7692 36.9002C25.1292 37.2602 25.5812 37.4402 26.1252 37.4402C26.6692 37.4402 27.1212 37.2602 27.4812 36.9002C27.8412 36.5322 28.0212 36.0722 28.0212 35.5202C28.0212 34.9682 27.8412 34.5122 27.4812 34.1522C27.1212 33.7842 26.6692 33.6002 26.1252 33.6002C25.5812 33.6002 25.1292 33.7842 24.7692 34.1522C24.4092 34.5122 24.2292 34.9682 24.2292 35.5202C24.2292 36.0642 24.4092 36.5242 24.7692 36.9002Z" fill="#181725"/>
</svg>
